<svg id="Layer_1" data-name="Layer 1" xmlns="http://www.w3.org/2000/svg" viewBox="0 0 131.78 133.75"><defs><style>.cls-1{fill:#8e5ea7;}.cls-2{fill:#fff;}</style></defs><path class="cls-1" d="M110.15,89.15c-8.2-23.22-20-44.6-44.6-44.6S29.15,65.93,21,89.15c-13.74,38.92,20,44.6,44.6,44.6S123.9,128.07,110.15,89.15Z" transform="translate(0 0)"/><path class="cls-2" d="M44.68,116.69c0-.11,0-.22,0-.33a8.2,8.2,0,0,0-8.29-8.58,35.92,35.92,0,0,1-4.57,0c-16-1.6-16.44-21.06-14.45-21.7,8.32-2.7,4.79-4.86,8.72-12.84,4.4-8.93,16.14-11,18.77-11,2,0,6.08.68,7.26-1l3.17-9.5A56.19,56.19,0,0,1,70,76.87C73.7,91.48,63,105.14,52.9,98.74c-14.44-9.12-.09-39.49,21.33-41.07,17-1.25,17.08,6.4,18.94,12.27s12.53,0,15.73,1.07,7.46,15.46-7.47,21.33,4,20.78-10.13,32.27c-9.39,7.63-20.25,9.73-32.14,7.86C49.51,131,44.44,125.08,44.68,116.69Z" transform="translate(0 0)"/><path class="cls-1" d="M67.13,133.62a52.53,52.53,0,0,1-8-.65c-9.72-1.53-15.16-7.47-14.91-16.3v-.32A7.8,7.8,0,0,0,42,110.56a7.54,7.54,0,0,0-5.56-2.28c-.38,0-.77,0-1.19,0a22.06,22.06,0,0,1-3.44,0c-10.29-1-14.81-9.36-15.62-16.82-.21-2-.23-5.43,1.07-5.85,5.19-1.68,5.5-3,6.19-6a26.66,26.66,0,0,1,2.23-6.53c4.5-9.14,16.49-11.24,19.21-11.27.46,0,1,0,1.61.06,1.86.1,4.4.24,5.21-.76l3.39-10.16.56.52a53.61,53.61,0,0,1,7.5,9.17,26.32,26.32,0,0,1,11.06-3.44C89.81,56,91.56,62.33,93.1,67.9c.18.64.35,1.28.54,1.89,1.08,3.38,5.69,2.3,9.75,1.35,2.37-.55,4.41-1,5.66-.61,1.81.61,3.37,4.08,3.46,7.74.08,3-.82,10.58-10.9,14.54-7,2.77-6.18,7.46-5.07,13.4S98.93,119,91.61,125A37.45,37.45,0,0,1,67.13,133.62ZM45.18,116.7C45,125,50.07,130.54,59.24,132c12.52,2,22.91-.58,31.74-7.76,6.85-5.58,5.69-11.8,4.57-17.83-1.09-5.88-2.13-11.44,5.7-14.52,9.49-3.72,10.34-10.74,10.26-13.58-.09-3.68-1.68-6.44-2.77-6.81s-3,.14-5.12.64c-4.27,1-9.58,2.23-10.93-2-.2-.62-.38-1.27-.56-1.92-1.5-5.45-3.06-11.08-17.86-10a25,25,0,0,0-10.56,3.34,53.1,53.1,0,0,1,6.74,15.24c2.47,9.67-1.29,18.41-6.29,22a9.84,9.84,0,0,1-11.53.37c-5.35-3.38-7.29-9.82-5.33-17.68a34.88,34.88,0,0,1,15-20.36,55.74,55.74,0,0,0-6.75-8.4l-3,8.88c-1.08,1.52-3.87,1.36-6.12,1.24-.57,0-1.1-.06-1.54-.06-2.6,0-14,2-18.33,10.71a26.4,26.4,0,0,0-2.15,6.31c-.72,3.17-1.12,4.92-6.86,6.78-.39.3-1,3.56.25,8.11,1.16,4.3,4.53,11.66,14.1,12.62a21.29,21.29,0,0,0,3.29,0c.43,0,.83,0,1.22,0a8.56,8.56,0,0,1,6.29,2.58,8.91,8.91,0,0,1,2.51,6.52ZM62.86,62A34,34,0,0,0,48.27,81.73c-1.85,7.41-.07,13.45,4.89,16.59A8.78,8.78,0,0,0,63.57,98c4.73-3.43,8.27-11.74,5.91-21A52,52,0,0,0,62.86,62Z" transform="translate(0 0)"/><circle class="cls-1" cx="32.5" cy="83.41" r="2"/><circle class="cls-1" cx="85.43" cy="71.27" r="2"/><path class="cls-1" d="M44.84,116.84l-.31-1c.09,0,9-3,12-15.1l1,.24C54.33,113.66,45.23,116.72,44.84,116.84Z" transform="translate(0 0)"/><path class="cls-1" d="M23.18,39.46c8.65,6.13,9.17,17.6,4,22.8s-17.21,5.48-22.8-4c-5.33-9-5.57-20.38-1.78-24.17S14.65,33.41,23.18,39.46Z" transform="translate(0 0)"/><path class="cls-1" d="M58.1,17.91C63.58,28.66,58,40.51,50,43S29.8,39.41,29.16,26.93C28.55,15,36.94,3.37,42.76,1.56S52.7,7.3,58.1,17.91Z" transform="translate(0 0)"/><path class="cls-1" d="M101.3,24.9C101.46,37.08,91.15,45.33,82.8,44S66.07,31.73,71.06,20.14c4.75-11,6.33-21,12.41-20.08S101.14,12.88,101.3,24.9Z" transform="translate(0 0)"/><path class="cls-1" d="M128,58.32c-6.12,8.65-17.6,9.18-22.8,4s-5.47-17.21,4-22.81c9-5.32,15.23-11.55,19-7.76S134,49.79,128,58.32Z" transform="translate(0 0)"/></svg>